<?xml version="1.0" encoding="UTF-8" standalone="no"?>
<!-- Created with Inkscape (http://www.inkscape.org/) -->

<svg
   width="210mm"
   height="297mm"
   viewBox="0 0 210 297"
   version="1.1"
   id="svg1"
   xmlns="http://www.w3.org/2000/svg"
   xmlns:svg="http://www.w3.org/2000/svg">
  <defs
     id="defs1" />
  <g
     id="layer1">
    <path
       style="fill:#30b321;fill-opacity:1;stroke-width:0.264583"
       id="path1-85"
       d="M 81.948163,99.827759 29.003423,92.199638 9.1371997,42.534087 42.215717,0.49665805 95.160457,8.1247795 115.02668,57.79033 Z"
       transform="matrix(0.10613405,-0.27024197,0.26436456,0.1084937,72.42448,88.423405)" />
    <path
       style="fill:#30b321;fill-opacity:1;stroke-width:0.264583"
       id="path1-85-5"
       d="M 81.948163,99.827759 29.003423,92.199638 9.1371997,42.534087 42.215717,0.49665805 95.160457,8.1247795 115.02668,57.79033 Z"
       transform="matrix(0.10613405,-0.27024197,0.26436456,0.1084937,72.42448,144.32407)" />
    <path
       style="fill:#6696ff;fill-opacity:1;stroke-width:0.264583"
       id="path1-85-6"
       d="M 81.948163,99.827759 29.003423,92.199638 9.1371997,42.534087 42.215717,0.49665805 95.160457,8.1247795 115.02668,57.79033 Z"
       transform="matrix(0.10613405,-0.27024197,0.26436456,0.1084937,72.42448,116.35199)" />
    <path
       style="fill:#30b321;fill-opacity:1;stroke-width:0.264583"
       id="path1-85-6-1"
       d="M 81.948163,99.827759 29.003423,92.199638 9.1371997,42.534087 42.215717,0.49665805 95.160457,8.1247795 115.02668,57.79033 Z"
       transform="matrix(0.10613405,-0.27024197,0.26436456,0.1084937,25.021515,116.35199)" />
    <path
       style="fill:#30b321;fill-opacity:1;stroke-width:0.264583"
       id="path1-85-6-3"
       d="M 81.948163,99.827759 29.003423,92.199638 9.1371997,42.534087 42.215717,0.49665805 95.160457,8.1247795 115.02668,57.79033 Z"
       transform="matrix(0.10613405,-0.27024197,0.26436456,0.1084937,119.90658,116.32328)" />
    <path
       style="fill:#6696ff;fill-opacity:1;stroke-width:0.264583"
       id="path1-85-6-9"
       d="M 81.948163,99.827759 29.003423,92.199638 9.1371997,42.534087 42.215717,0.49665805 95.160457,8.1247795 115.02668,57.79033 Z"
       transform="matrix(0.10613405,-0.27024197,0.26436456,0.1084937,96.427884,102.3104)" />
    <path
       style="fill:#30b321;fill-opacity:1;stroke-width:0.264583"
       id="path1-85-6-8"
       d="M 81.948163,99.827759 29.003423,92.199638 9.1371997,42.534087 42.215717,0.49665805 95.160457,8.1247795 115.02668,57.79033 Z"
       transform="matrix(0.10613405,-0.27024197,0.26436456,0.1084937,96.427884,130.38594)" />
    <path
       style="fill:#30b321;fill-opacity:1;stroke-width:0.264583"
       id="path1-85-6-5"
       d="M 81.948163,99.827759 29.003423,92.199638 9.1371997,42.534087 42.215717,0.49665805 95.160457,8.1247795 115.02668,57.79033 Z"
       transform="matrix(0.10613405,-0.27024197,0.26436456,0.1084937,96.427884,158.31968)" />
    <path
       style="fill:#6696ff;fill-opacity:1;stroke-width:0.264583"
       id="path1-85-6-37"
       d="M 81.948163,99.827759 29.003423,92.199638 9.1371997,42.534087 42.215717,0.49665805 95.160457,8.1247795 115.02668,57.79033 Z"
       transform="matrix(0.10613405,-0.27024197,0.26436456,0.1084937,96.427884,74.380076)" />
    <path
       style="fill:#30b321;fill-opacity:1;stroke-width:0.264583"
       id="path1-85-6-9-0"
       d="M 81.948163,99.827759 29.003423,92.199638 9.1371997,42.534087 42.215717,0.49665805 95.160457,8.1247795 115.02668,57.79033 Z"
       transform="matrix(0.10613405,-0.27024197,0.26436456,0.1084937,48.666292,102.3104)" />
    <path
       style="fill:#6696ff;fill-opacity:1;stroke-width:0.264583"
       id="path1-85-6-8-7"
       d="M 81.948163,99.827759 29.003423,92.199638 9.1371997,42.534087 42.215717,0.49665805 95.160457,8.1247795 115.02668,57.79033 Z"
       transform="matrix(0.10613405,-0.27024197,0.26436456,0.1084937,48.666292,130.38594)" />
    <path
       style="fill:#30b321;fill-opacity:1;stroke-width:0.264583"
       id="path1-85-6-5-1"
       d="M 81.948163,99.827759 29.003423,92.199638 9.1371997,42.534087 42.215717,0.49665805 95.160457,8.1247795 115.02668,57.79033 Z"
       transform="matrix(0.10613405,-0.27024197,0.26436456,0.1084937,48.666292,158.31968)" />
    <path
       style="fill:#e94949;fill-opacity:1;stroke-width:0.264583"
       id="path1-85-6-37-7"
       d="M 81.948163,99.827759 29.003423,92.199638 9.1371997,42.534087 42.215717,0.49665805 95.160457,8.1247795 115.02668,57.79033 Z"
       transform="matrix(0.10613405,-0.27024197,0.26436456,0.1084937,48.666292,74.380076)" />
  </g>
</svg>
