<?xml version="1.0" encoding="UTF-8" standalone="no"?>
<!-- Created with Inkscape (http://www.inkscape.org/) -->

<svg
   width="210mm"
   height="297mm"
   viewBox="0 0 210 297"
   version="1.1"
   id="svg1"
   xmlns="http://www.w3.org/2000/svg"
   xmlns:svg="http://www.w3.org/2000/svg">
  <defs
     id="defs1" />
  <g
     id="layer1">
    <path
       style="fill:#30b321;fill-opacity:1;stroke-width:0.264583"
       id="path1-85"
       d="M 81.948163,99.827759 29.003423,92.199638 9.1371997,42.534087 42.215717,0.49665805 95.160457,8.1247795 115.02668,57.79033 Z"
       transform="matrix(0.14103389,-0.36339827,0.351295,0.14589304,67.341532,82.704041)" />
    <path
       style="fill:#30b321;fill-opacity:1;stroke-width:0.264583"
       id="path1-85-5"
       d="M 81.948163,99.827759 29.003423,92.199638 9.1371997,42.534087 42.215717,0.49665805 95.160457,8.1247795 115.02668,57.79033 Z"
       transform="matrix(0.14103389,-0.36339827,0.351295,0.14589304,67.341532,157.87447)" />
    <path
       style="fill:#6696ff;fill-opacity:1;stroke-width:0.264583"
       id="path1-85-6"
       d="M 81.948163,99.827759 29.003423,92.199638 9.1371997,42.534087 42.215717,0.49665805 95.160457,8.1247795 115.02668,57.79033 Z"
       transform="matrix(0.14103389,-0.36339827,0.351295,0.14589304,67.341532,120.28926)" />
    <path
       style="fill:#30b321;fill-opacity:1;stroke-width:0.264583"
       id="path1-85-6-1"
       d="M 81.948163,99.827759 29.003423,92.199638 9.1371997,42.534087 42.215717,0.49665805 95.160457,8.1247795 115.02668,57.79033 Z"
       transform="matrix(0.14103389,-0.36339827,0.351295,0.14589304,2.8938142,120.24071)" />
    <path
       style="fill:#30b321;fill-opacity:1;stroke-width:0.264583"
       id="path1-85-6-3"
       d="M 81.948163,99.827759 29.003423,92.199638 9.1371997,42.534087 42.215717,0.49665805 95.160457,8.1247795 115.02668,57.79033 Z"
       transform="matrix(0.14103389,-0.36339827,0.351295,0.14589304,131.78925,120.24071)" />
    <path
       style="fill:#6696ff;fill-opacity:1;stroke-width:0.264583"
       id="path1-85-6-9"
       d="M 81.948163,99.827759 29.003423,92.199638 9.1371997,42.534087 42.215717,0.49665805 95.160457,8.1247795 115.02668,57.79033 Z"
       transform="matrix(0.14103389,-0.36339827,0.351295,0.14589304,99.565391,101.75255)" />
    <path
       style="fill:#30b321;fill-opacity:1;stroke-width:0.264583"
       id="path1-85-6-8"
       d="M 81.948163,99.827759 29.003423,92.199638 9.1371997,42.534087 42.215717,0.49665805 95.160457,8.1247795 115.02668,57.79033 Z"
       transform="matrix(0.14103389,-0.36339827,0.351295,0.14589304,99.565391,139.37748)" />
    <path
       style="fill:#30b321;fill-opacity:1;stroke-width:0.264583"
       id="path1-85-6-5"
       d="M 81.948163,99.827759 29.003423,92.199638 9.1371997,42.534087 42.215717,0.49665805 95.160457,8.1247795 115.02668,57.79033 Z"
       transform="matrix(0.14103389,-0.36339827,0.351295,0.14589304,99.565391,177.00241)" />
    <path
       style="fill:#6696ff;fill-opacity:1;stroke-width:0.264583"
       id="path1-85-6-37"
       d="M 81.948163,99.827759 29.003423,92.199638 9.1371997,42.534087 42.215717,0.49665805 95.160457,8.1247795 115.02668,57.79033 Z"
       transform="matrix(0.14103389,-0.36339827,0.351295,0.14589304,99.565391,64.127613)" />
    <path
       style="fill:#6696ff;fill-opacity:1;stroke-width:0.264583"
       id="path1-85-6-9-3"
       d="M 81.948163,99.827759 29.003423,92.199638 9.1371997,42.534087 42.215717,0.49665805 95.160457,8.1247795 115.02668,57.79033 Z"
       transform="matrix(0.14103389,-0.36339827,0.351295,0.14589304,35.117673,101.40136)" />
    <path
       style="fill:#6696ff;fill-opacity:1;stroke-width:0.264583"
       id="path1-85-6-8-8"
       d="M 81.948163,99.827759 29.003423,92.199638 9.1371997,42.534087 42.215717,0.49665805 95.160457,8.1247795 115.02668,57.79033 Z"
       transform="matrix(0.14103389,-0.36339827,0.351295,0.14589304,35.117673,139.02629)" />
    <path
       style="fill:#30b321;fill-opacity:1;stroke-width:0.264583"
       id="path1-85-6-5-0"
       d="M 81.948163,99.827759 29.003423,92.199638 9.1371997,42.534087 42.215717,0.49665805 95.160457,8.1247795 115.02668,57.79033 Z"
       transform="matrix(0.14103389,-0.36339827,0.351295,0.14589304,35.117673,176.65122)" />
    <path
       style="fill:#ff2a2a;fill-opacity:1;stroke-width:0.264583"
       id="path1-85-6-37-1"
       d="M 81.948163,99.827759 29.003423,92.199638 9.1371997,42.534087 42.215717,0.49665805 95.160457,8.1247795 115.02668,57.79033 Z"
       transform="matrix(0.14103389,-0.36339827,0.351295,0.14589304,35.117673,63.776424)" />
  </g>
</svg>
